<svg xmlns="http://www.w3.org/2000/svg" width="24" height="24" fill="currentColor" viewBox="0 0 24 24">
  <path d="M21.8 8s-.2-1.4-.8-2c-.7-.8-1.5-.8-1.9-.9C16.8 5 12 5 12 5h0s-4.8 0-7.1.1c-.4 0-1.2.1-1.9.9-.6.6-.8 2-.8 2S2 9.6 2 11.2v1.5c0 1.6.2 3.2.2 3.2s.2 1.4.8 2c.7.7 1.6.7 2 .8 1.4.1 5.9.1 7 .1s5.9 0 7.1-.1c.4 0 1.2-.1 1.9-.8.6-.6.8-2 .8-2s.2-1.6.2-3.2v-1.5c0-1.6-.2-3.2-.2-3.2zM10 14.7V9.3l5.2 2.7-5.2 2.7z"/>
    <svg class="social-icon" xmlns="http://www.w3.org/2000/svg" width="40" height="40" fill="currentColor" viewBox="0 0 24 24">
  <path d="..."/>
</svg>

</svg>
